# xmcd
#
# Track frame offsets:
#	150
#	874
#	14212
#	30060
#	42909
#	55592
#	76050
#	92419
#	108567
#	122090
#	138632
#	152272
#	162565
#	178804
#	194551
#	210541
#	229641
#	246581
#	262037
#	273748
#	288843
#	302491
#	304832
#	307041
#	309702
#	310746
#	312028
#	312818
#	313493
#	314167
#	315405
#	316059
#	316841
#	317849
#	318689
#	319314
#	320063
#	330461
#	341210
#
# Disc length: 4690 seconds
#
# Revision: 2
# Processed by: cddbd v1.5.2PL0 Copyright (c) Steve Scherf et al.
# Submitted via: audiograbber 1.83.01
#
DISCID=2f125027
DTITLE=Country Hotdisc - Country Hotdisc 060
DYEAR=1900
DGENRE=
TTITLE0=Intro - Intro
TTITLE1=Johnny Here´s To You  - Arly
TTITLE2=The Mire I Know About Women  - Denny Reed
TTITLE3=Sweet Thang  - B. Jeff Stone
TTITLE4=When I Found You  - Todd Dunford
TTITLE5=Running Round In Circles  - John Mccane
TTITLE6=I Was There  - Billy Don Burns
TTITLE7=6 White Horses - Poker Alice
TTITLE8=America Redneck Dream  - Gary Hays
TTITLE9=Angels  - Clint Miller and Del Mccoury Band  
TTITLE10=Christmas Is Everywhere  - Narvel Felts
TTITLE11=Let It Snow, Let It Snow, Let It Snow - Jo Dee Messina
TTITLE12=Merry Christmas Darling  - Tammy Cochran
TTITLE13=Angels Wings  - James Heinz Von Bauer
TTITLE14=O Holy Night  - The Larkins
TTITLE15=So Damn Distant  - Norman Jay
TTITLE16=My Favourite Things  - Lorrie Morgan
TTITLE17=Belleau Wood  - Terry Lee Travis
TTITLE18=Winter Wonderland - Ricky Van Shelton
TTITLE19=Blugrass White Snow - Patty Æoveless
TTITLE20=At Christmas Time  - Crissy Cummings
TTITLE21=Christmas Jingle  - Donna Frost
TTITLE22=Christmas Jingle  - Martina Mcbride
TTITLE23=Christmas Jingle  - Boomer Mclennan
TTITLE24=Christmas Jingle  - Paul Rutter
TTITLE25=Christmas Jingle  - Paul Rutter
TTITLE26=Christmas Jingle  - Arly
TTITLE27=Christmas Jingle  - Br549
TTITLE28=Christmas Jingle  - Brooks and Dunn
TTITLE29=Christmas Jingle  - Kenny Butterhill
TTITLE30=Christmas Jingle  - Gene Watson
TTITLE31=Christmas Jingle  - Lynn Taylor Donovan
TTITLE32=Christmas Jingle  - Narvelt Felts
TTITLE33=Christmas Jingle  - Slim Whitman
TTITLE34=Christmas Jingle  - Steve Ripley From The Tractors
TTITLE35=Christmas Jingle  - Vannassa Barrett
TTITLE36=Best British Album - Best British Single
TTITLE37=Best British Single - Best British Single
TTITLE38=Best British Song - Best British Song
EXTD=
EXTT0=
EXTT1=
EXTT2=
EXTT3=
EXTT4=
EXTT5=
EXTT6=
EXTT7=
EXTT8=
EXTT9=
EXTT10=
EXTT11=
EXTT12=
EXTT13=
EXTT14=
EXTT15=
EXTT16=
EXTT17=
EXTT18=
EXTT19=
EXTT20=
EXTT21=
EXTT22=
EXTT23=
EXTT24=
EXTT25=
EXTT26=
EXTT27=
EXTT28=
EXTT29=
EXTT30=
EXTT31=
EXTT32=
EXTT33=
EXTT34=
EXTT35=
EXTT36=
EXTT37=
EXTT38=
PLAYORDER=
